<?xml version="1.0" encoding="utf-8"?>
<!-- Generator: Adobe Illustrator 25.2.3, SVG Export Plug-In . SVG Version: 6.00 Build 0)  -->
<svg version="1.1" id="Layer_1" xmlns="http://www.w3.org/2000/svg" xmlns:xlink="http://www.w3.org/1999/xlink" x="0px" y="0px"
	 viewBox="0 0 612 792" enable-background="new 0 0 612 792" xml:space="preserve">
<g>
	<g>
		<g>
			<path d="M442.85,368.13c-7.8,11.45-15.89,22.65-23.96,33.87l-12.25,16.71l-12.47,16.51c-4.2,5.47-8.04,11.24-12.06,16.87
				c-4.01,5.63-8.47,10.87-13.42,15.69c-4.94,4.83-10.16,9.41-15.71,13.71c-5.59,4.27-11.4,8.34-18.09,11.66
				c-0.54,0.27-1.19,0.05-1.45-0.49c-0.13-0.26-0.14-0.56-0.06-0.82c2.31-7.1,5.5-13.44,8.9-19.59c3.45-6.12,7.22-11.95,11.27-17.55
				c4.05-5.6,8.58-10.78,13.57-15.56c4.98-4.79,10.13-9.44,14.93-14.39l14.52-14.75l14.74-14.55c9.92-9.62,19.82-19.26,30.02-28.64
				c0.41-0.38,1.05-0.35,1.42,0.06C443.08,367.23,443.11,367.75,442.85,368.13z"/>
		</g>
		<g>
			<path d="M211.97,369.25c2.56,11.54,4.86,23.12,7.19,34.7l3.37,17.38l3.18,17.4c1.03,5.8,2.35,11.57,3.53,17.36
				c1.18,5.78,1.99,11.62,2.37,17.51c0.39,5.89,0.54,11.81,0.42,17.77c-0.15,5.96-0.52,11.95-1.6,18.03
				c-0.07,0.37-0.42,0.62-0.79,0.55c-0.23-0.04-0.41-0.19-0.5-0.38c-2.62-5.6-4.52-11.29-6.22-17c-1.66-5.72-3.05-11.48-4.2-17.27
				c-1.15-5.79-1.89-11.63-2.24-17.53c-0.35-5.89-0.58-11.81-1.08-17.68l-1.44-17.63l-1.24-17.66c-0.75-11.78-1.52-23.56-2.03-35.38
				c-0.02-0.36,0.26-0.66,0.62-0.68C211.62,368.73,211.9,368.95,211.97,369.25z"/>
		</g>
		<g>
			<path d="M145.88,466.58c-0.25-12.94,0.69-25.94,2.95-38.77l0.91-4.8c0.3-1.6,0.59-3.21,1.04-4.78c0.82-3.16,1.62-6.33,2.47-9.49
				l3.05-9.34l0.38-1.17l0.45-1.14l0.91-2.28l1.82-4.57c10.12-24.21,25.87-46.42,46.44-63.56c2.59-2.1,5.28-4.1,7.93-6.15
				c1.3-1.06,2.74-1.93,4.13-2.87l4.2-2.77l2.1-1.39l2.16-1.25l4.33-2.47c2.85-1.72,5.87-3.14,8.85-4.64
				c11.97-5.89,24.64-10.57,37.81-13.64l2.46-0.6l2.5-0.47l5-0.92c1.66-0.35,3.36-0.5,5.04-0.73l5.07-0.63
				c1.7-0.14,3.41-0.23,5.11-0.35c1.71-0.09,3.41-0.28,5.13-0.25c3.43,0,6.86-0.13,10.31,0.17c1.72,0.11,3.44,0.18,5.17,0.34
				l5.16,0.63c0.86,0.12,1.72,0.19,2.58,0.34l2.57,0.48c1.71,0.34,3.43,0.62,5.14,1.01c6.82,1.6,13.57,3.83,20.13,6.76l-0.99-0.41
				l1.11,0.41l0.91,0.36c0.6,0.24,1.17,0.49,1.73,0.74c1.14,0.49,2.22,1.03,3.31,1.58c1.07,0.57,2.15,1.12,3.19,1.74l1.57,0.92
				l1.53,0.98c4.07,2.65,7.94,5.76,11.44,9.42c0.87,0.92,1.75,1.82,2.54,2.84c0.79,1.01,1.65,1.96,2.37,3.04l2.18,3.24l1.9,3.46
				l0.46,0.87l0.39,0.91l0.78,1.83l0.76,1.84c0.22,0.65,0.42,1.32,0.63,1.98l0.6,2c0.18,0.67,0.3,1.34,0.44,2.01
				c0.28,1.34,0.56,2.69,0.66,4.03c0.64,5.37,0.36,10.62-0.46,15.58c-0.86,4.95-2.24,9.63-3.87,14.12
				c-3.31,8.97-7.86,17.03-12.93,24.6c-5.14,7.5-10.83,14.52-17.05,20.98c-6.19,6.5-12.9,12.48-20.06,17.92
				c-7.15,5.45-14.76,10.36-22.88,14.54l-3.06,1.54l-3.12,1.45c-2.08,0.97-4.19,1.88-6.3,2.71c-4.23,1.67-8.47,3.17-12.78,4.46
				c-8.61,2.6-17.38,4.59-26.66,5.64c-4.64,0.51-9.43,0.77-14.52,0.56c-5.11-0.29-10.57-0.83-16.99-3.71
				c-1.6-0.74-3.26-1.68-4.91-2.91c-1.64-1.23-3.29-2.75-4.69-4.61c-0.35-0.47-0.69-0.94-1.02-1.42c-0.32-0.48-0.58-0.98-0.85-1.48
				c-0.27-0.5-0.53-1-0.77-1.51c-0.22-0.49-0.39-0.98-0.58-1.47c-0.18-0.49-0.36-0.99-0.52-1.48c-0.13-0.48-0.25-0.94-0.36-1.42
				l-0.32-1.42c-0.08-0.46-0.13-0.91-0.19-1.36c-0.46-3.63-0.19-6.94,0.45-10.09c0.65-3.15,1.73-6.15,3.33-9.09
				c1.62-2.92,3.76-5.84,7.02-8.38c0.75-0.64,1.74-1.21,2.67-1.76c0.91-0.56,1.99-0.99,3.01-1.4c2.08-0.74,4.2-1.14,6.15-1.25
				c3.95-0.23,7.15,0.53,9.96,1.4c2.8,0.9,5.17,2.04,7.41,3.24c4.4,2.44,8.15,5.17,11.68,7.99c3.52,2.82,6.74,5.81,9.87,8.83
				c3.14,3,6.09,6.14,8.99,9.28c2.89,3.14,5.69,6.35,8.41,9.6c10.88,12.98,20.8,26.54,29.95,40.62c0.41,0.63,0.23,1.47-0.4,1.88
				c-0.53,0.34-1.2,0.27-1.65-0.12l0,0c-12.53-11.12-24.77-22.39-37.34-32.98c-6.29-5.28-12.62-10.43-19.08-15.12
				c-3.22-2.35-6.49-4.56-9.74-6.56c-3.24-2-6.53-3.75-9.6-4.96c-1.51-0.58-2.98-1.08-4.19-1.29c-1.19-0.22-2.16-0.19-2.36-0.02
				c-0.13,0.06-0.04,0.14,0.09,0.12c0.09,0.04,0.17-0.04,0.23,0c0.07,0.03,0.12-0.06,0.12,0.02c0.03,0.08-0.32,0.59-0.6,1.36
				c-0.29,0.76-0.53,1.76-0.58,2.7c-0.07,0.94,0.04,1.83,0.21,2.31l0.04,0.18c0.03,0.03,0.05,0.06,0.07,0.09
				c0.02,0.03,0.03,0.07,0.03,0.09c0.02-0.01,0.04-0.02,0.04-0.03c0.01-0.01,0,0,0-0.02c0-0.05,0-0.1-0.02-0.15
				c-0.01-0.05-0.05-0.07-0.07-0.13c-0.01-0.07-0.04-0.13-0.07-0.18c-0.27-0.45-0.3-0.4,0.34-0.22c1.25,0.4,4.23,0.8,7.39,0.72
				c3.22-0.07,6.75-0.45,10.34-1.08c7.2-1.22,14.63-3.21,21.86-5.62c3.62-1.22,7.22-2.5,10.69-3.95c1.74-0.73,3.46-1.43,5.14-2.23
				l2.54-1.17l2.51-1.27c6.72-3.33,13.19-7.35,19.48-11.68c12.49-8.74,24.12-19.18,33.4-31.09c4.59-5.95,8.6-12.28,11.45-18.77
				c1.42-3.24,2.53-6.52,3.26-9.73c0.69-3.21,0.97-6.34,0.77-9.24c-0.31-5.53-2.98-11.32-7.28-16.18c-2.14-2.45-4.68-4.71-7.5-6.71
				l-1.06-0.75l-1.1-0.7c-0.72-0.48-1.48-0.9-2.23-1.35c-0.75-0.41-1.52-0.85-2.27-1.21c-0.38-0.19-0.75-0.38-1.11-0.54l-0.87-0.39
				l-0.99-0.42c-5.08-2.51-10.48-4.56-16.1-6.14c-1.41-0.39-2.85-0.67-4.27-1.02l-2.14-0.5c-0.72-0.16-1.45-0.25-2.18-0.38
				l-4.37-0.73c-1.47-0.2-2.95-0.31-4.43-0.47c-2.95-0.38-5.95-0.4-8.93-0.56c-1.49-0.12-3-0.01-4.5-0.01l-4.51,0.07l-4.51,0.34
				c-1.5,0.13-3.02,0.17-4.52,0.42l-4.51,0.6l-2.26,0.3l-2.24,0.43c-11.98,2.16-23.77,5.83-35.1,10.71
				c-2.82,1.25-5.69,2.42-8.42,3.89l-4.15,2.1l-2.07,1.05l-1.98,1.16l-3.98,2.32c-1.32,0.79-2.69,1.5-3.93,2.41
				c-2.52,1.75-5.1,3.44-7.6,5.24c-19.85,14.7-35.79,34.69-46.94,57.17l-2.01,4.26l-1.01,2.13l-0.5,1.07l-0.43,1.1l-3.48,8.78
				l-2.95,9c-0.53,1.49-0.9,3.03-1.3,4.56l-1.2,4.59c-3.04,12.29-4.85,24.93-5.47,37.68l0,0.02c-0.04,0.74-0.67,1.32-1.41,1.28
				C146.45,467.87,145.89,467.29,145.88,466.58z"/>
		</g>
	</g>
	<g>
		<path d="M288.62,230.7c43.93,0,85.23,17.11,116.29,48.17s48.17,72.36,48.17,116.29c0,43.93-17.11,85.23-48.17,116.29
			c-31.06,31.06-72.36,48.17-116.29,48.17s-85.23-17.11-116.29-48.17c-31.06-31.06-48.17-72.36-48.17-116.29
			c0-43.93,17.11-85.23,48.17-116.29S244.69,230.7,288.62,230.7 M288.62,224.7c-94.14,0-170.46,76.32-170.46,170.46
			c0,94.14,76.32,170.46,170.46,170.46s170.46-76.32,170.46-170.46C459.08,301.02,382.76,224.7,288.62,224.7L288.62,224.7z"/>
	</g>
</g>
</svg>
