<?xml version="1.0" encoding="utf-8"?>
<!-- Generator: Adobe Illustrator 25.2.3, SVG Export Plug-In . SVG Version: 6.00 Build 0)  -->
<svg version="1.1" id="Layer_1" xmlns="http://www.w3.org/2000/svg" xmlns:xlink="http://www.w3.org/1999/xlink" x="0px" y="0px"
	 viewBox="0 0 792 612" enable-background="new 0 0 792 612" xml:space="preserve">
<g>
	<path fill="#1C75BC" d="M536.51,242.54c-8.28,11.04-16.73,21.93-25.17,32.83l-12.75,16.28l-12.88,16.16
		c-4.3,5.38-8.44,10.9-12.63,16.37c-4.21,5.46-8.68,10.7-13.45,15.67c-4.76,4.98-9.7,9.81-14.83,14.48
		c-5.15,4.65-10.45,9.16-16.25,13.25c-0.28,0.2-0.67,0.13-0.86-0.15c-0.14-0.19-0.15-0.44-0.05-0.63
		c3.2-6.33,6.89-12.24,10.74-18.01c3.87-5.75,7.93-11.34,12.16-16.78c4.22-5.45,8.75-10.63,13.54-15.59
		c4.81-4.94,9.67-9.84,14.36-14.88l14.11-15.1l14.24-14.98c9.55-9.94,19.09-19.89,28.81-29.69c0.23-0.24,0.61-0.24,0.85,0
		C536.67,241.96,536.69,242.3,536.51,242.54z"/>
</g>
<g>
	<path fill="#1C75BC" d="M305.88,243.93c2.48,11.56,4.72,23.14,6.99,34.72l3.29,17.39l3.11,17.41c1.01,5.81,2.28,11.58,3.44,17.37
		c1.15,5.79,1.95,11.62,2.37,17.51c0.42,5.89,0.62,11.8,0.56,17.75c-0.08,5.95-0.37,11.93-1.3,17.99c-0.05,0.34-0.37,0.57-0.71,0.52
		c-0.22-0.03-0.39-0.18-0.48-0.37c-2.48-5.61-4.29-11.32-5.92-17.04c-1.6-5.73-2.93-11.5-4.05-17.29
		c-1.12-5.79-1.86-11.64-2.25-17.53c-0.38-5.89-0.65-11.8-1.18-17.67l-1.5-17.62l-1.32-17.65c-0.81-11.77-1.64-23.55-2.23-35.35
		c-0.02-0.33,0.24-0.61,0.57-0.63C305.56,243.44,305.82,243.65,305.88,243.93z"/>
</g>
<g>
	<path fill="#1C75BC" d="M240.59,341.26c-0.01-12.88,1.17-25.78,3.65-38.47l0.99-4.75c0.33-1.58,0.64-3.17,1.11-4.72l2.61-9.35
		l3.18-9.18l0.4-1.15l0.47-1.12l0.94-2.24l1.88-4.49c10.44-23.71,26.2-45.32,46.56-61.79c2.57-2.02,5.22-3.93,7.84-5.9
		c1.28-1.02,2.7-1.84,4.07-2.74l4.13-2.65l2.07-1.32l2.14-1.19l4.28-2.36c2.82-1.64,5.8-2.99,8.73-4.42
		c11.8-5.6,24.22-9.98,37.06-12.79l2.4-0.55l2.43-0.42l4.86-0.83c1.62-0.32,3.26-0.44,4.9-0.63l4.91-0.54l4.94-0.27
		c1.65-0.06,3.29-0.23,4.95-0.17c3.3,0.05,6.61-0.04,9.92,0.28c1.65,0.13,3.31,0.2,4.96,0.37l4.94,0.65
		c0.82,0.12,1.65,0.2,2.47,0.35l2.45,0.48c1.63,0.34,3.27,0.62,4.9,1.01c6.49,1.59,12.86,3.76,19.01,6.56l-0.44-0.18l0.89,0.34
		l0.8,0.33c0.53,0.22,1.05,0.45,1.56,0.68c1.03,0.46,2.02,0.96,3.02,1.47c0.98,0.53,1.97,1.04,2.92,1.63l1.44,0.86l1.4,0.92
		c3.72,2.46,7.23,5.33,10.35,8.65c0.78,0.83,1.57,1.65,2.26,2.57c0.7,0.91,1.47,1.76,2.1,2.73l1.92,2.89l1.65,3.07l0.41,0.77
		l0.34,0.81l0.67,1.62l0.66,1.62c0.19,0.56,0.35,1.14,0.52,1.71l0.51,1.72c0.15,0.58,0.24,1.16,0.36,1.74
		c0.23,1.16,0.47,2.33,0.55,3.5c0.52,4.68,0.25,9.35-0.53,13.82c-0.82,4.47-2.11,8.77-3.69,12.91c-3.19,8.28-7.62,15.85-12.54,22.97
		c-5.01,7.06-10.55,13.7-16.62,19.8c-6.05,6.12-12.54,11.8-19.46,16.93c-6.91,5.14-14.22,9.78-21.94,13.75
		c-7.75,3.95-15.83,7.2-24.04,9.73c-8.24,2.52-16.63,4.54-25.33,5.64c-4.35,0.54-8.79,0.83-13.36,0.68
		c-4.57-0.2-9.33-0.7-14.31-2.87c-2.46-1.11-5.04-2.8-7.03-5.36l-0.72-0.97c-0.23-0.33-0.4-0.68-0.6-1.03l-0.56-1.05
		c-0.16-0.35-0.28-0.7-0.42-1.05l-0.39-1.06l-0.27-1.05l-0.25-1.05c-0.06-0.35-0.1-0.69-0.15-1.03c-0.38-2.76-0.21-5.39,0.27-7.93
		c0.49-2.54,1.33-4.98,2.58-7.31c1.25-2.32,2.9-4.56,5.24-6.42c1.16-0.92,2.54-1.72,3.99-2.29c1.46-0.53,2.97-0.85,4.41-0.94
		c2.91-0.21,5.49,0.32,7.84,1c2.36,0.71,4.48,1.66,6.52,2.69c4.03,2.11,7.65,4.57,11.09,7.17c3.44,2.6,6.68,5.36,9.84,8.19
		c6.32,5.65,12.15,11.7,17.86,17.83c11.34,12.33,21.93,25.22,32.01,38.49c0.2,0.26,0.15,0.64-0.12,0.84
		c-0.24,0.19-0.59,0.15-0.8-0.06c-11.6-11.93-23.17-23.86-35.28-35.11c-6.03-5.64-12.23-11.08-18.61-16.16
		c-3.19-2.54-6.44-4.98-9.77-7.2c-3.32-2.22-6.75-4.24-10.19-5.79c-1.72-0.75-3.43-1.43-5.08-1.84c-1.64-0.4-3.23-0.59-4.47-0.41
		c-0.63,0.07-1.17,0.24-1.65,0.43c-0.46,0.23-0.89,0.5-1.33,0.9c-0.88,0.77-1.73,1.96-2.38,3.33c-1.33,2.73-1.8,6.24-1.31,8.96
		c0.24,1.38,0.71,2.42,1.3,3.11c0.6,0.72,1.57,1.4,2.91,1.94c2.69,1.1,6.36,1.54,10.07,1.55c3.74,0,7.62-0.35,11.5-0.96
		c7.77-1.17,15.59-3.14,23.2-5.62c3.81-1.25,7.59-2.57,11.28-4.08c1.85-0.75,3.67-1.52,5.46-2.37l2.7-1.25l2.66-1.35
		c7.12-3.55,13.9-7.83,20.42-12.47c13-9.34,24.87-20.5,34.43-33.26c4.73-6.4,8.87-13.22,11.84-20.4c1.47-3.59,2.66-7.25,3.43-10.95
		c0.73-3.69,1.01-7.41,0.7-11c-0.57-7.07-4.01-13.97-9.05-19.5c-2.51-2.79-5.43-5.29-8.59-7.48l-1.19-0.82l-1.23-0.76
		c-0.81-0.52-1.66-0.98-2.49-1.46c-0.85-0.45-1.7-0.91-2.56-1.31c-0.43-0.21-0.86-0.41-1.29-0.59l-0.63-0.27l-0.56-0.23l-0.31-0.13
		c-0.04-0.02-0.09-0.04-0.13-0.06c-5.49-2.63-11.27-4.74-17.23-6.33c-1.49-0.39-3.01-0.68-4.52-1.02l-2.26-0.5
		c-0.76-0.16-1.53-0.24-2.29-0.37l-4.6-0.71c-1.54-0.19-3.09-0.29-4.64-0.44c-3.09-0.37-6.21-0.34-9.32-0.45
		c-1.56-0.09-3.12,0.04-4.68,0.07l-4.68,0.16l-4.67,0.42c-1.56,0.16-3.12,0.23-4.66,0.51l-4.65,0.69l-2.32,0.35l-2.3,0.48
		c-12.31,2.43-24.34,6.39-35.85,11.57c-11.51,5.22-22.54,11.44-32.56,19.1c-20.05,15.37-35.98,35.97-46.81,58.95l-1.95,4.35
		l-0.98,2.18l-0.49,1.09l-0.42,1.12l-3.36,8.94l-2.81,9.13c-0.51,1.51-0.86,3.07-1.23,4.62l-1.12,4.65
		c-2.83,12.44-4.39,25.18-4.77,37.98l0,0.01c-0.01,0.33-0.29,0.59-0.62,0.58C240.85,341.85,240.59,341.58,240.59,341.26z"/>
</g>
<path fill="none" stroke="#1C75BC" stroke-width="6" stroke-linecap="round" stroke-linejoin="round" stroke-miterlimit="10" d="
	M470.84,270.43c-14.8,12.17,2.84,22.8,5.45,23.73c4.45,1.58,11.6-2.44,12.28-7.08c1.31-8.99-15.08-17.83-14.07-17.22
	c2.66,1.6,13.08,9.61,18.32,6.26"/>
<path fill="none" stroke="#1C75BC" stroke-width="6" stroke-linecap="round" stroke-linejoin="round" stroke-miterlimit="10" d="
	M442.12,302.1c6.22,6.14,13.33,22.02,19.87,13.65c4.99-6.4-0.36-18.57-8.59-28.16c5.86,6.83,10.64,15.81,19.41,16.87"/>
<g>
	<path d="M429.67,281.51c-0.3-0.15-0.83-0.64-1.14-1.53c-0.31-0.89-0.19-1.6-0.05-1.9c0.29,0.15,0.82,0.64,1.13,1.53
		C429.92,280.49,429.8,281.21,429.67,281.51z"/>
	<path fill="#1C75BC" d="M428.35,275.03c-0.3,0-0.6,0.05-0.88,0.15c-1.86,0.65-2.65,3.24-1.77,5.79c0.75,2.16,2.46,3.59,4.1,3.59
		c0.3,0,0.6-0.05,0.88-0.15c1.86-0.65,2.65-3.24,1.77-5.79C431.69,276.46,429.98,275.03,428.35,275.03L428.35,275.03z"/>
</g>
<g>
	<path d="M437.43,273.22c-0.3-0.15-0.83-0.64-1.14-1.53c-0.31-0.89-0.19-1.6-0.05-1.9c0.29,0.15,0.82,0.64,1.13,1.53
		C437.68,272.2,437.57,272.91,437.43,273.22z"/>
	<path fill="#1C75BC" d="M436.11,266.74c-0.3,0-0.6,0.05-0.88,0.15c-1.86,0.65-2.65,3.24-1.77,5.79c0.75,2.16,2.46,3.59,4.1,3.59
		c0.3,0,0.6-0.05,0.88-0.15c1.86-0.65,2.65-3.24,1.77-5.79C439.46,268.17,437.75,266.74,436.11,266.74L436.11,266.74z"/>
</g>
<g>
	<path fill="#1C75BC" d="M382.58,105.37c43.93,0,85.23,17.11,116.29,48.17c31.06,31.06,48.17,72.36,48.17,116.29
		c0,43.93-17.11,85.23-48.17,116.29s-72.36,48.17-116.29,48.17s-85.23-17.11-116.29-48.17s-48.17-72.36-48.17-116.29
		c0-43.93,17.11-85.23,48.17-116.29C297.35,122.48,338.65,105.37,382.58,105.37 M382.58,99.37c-94.14,0-170.46,76.32-170.46,170.46
		s76.32,170.46,170.46,170.46s170.46-76.32,170.46-170.46S476.72,99.37,382.58,99.37L382.58,99.37z"/>
</g>
</svg>
