<?xml version="1.0" encoding="utf-8"?>
<!-- Generator: Adobe Illustrator 25.2.3, SVG Export Plug-In . SVG Version: 6.00 Build 0)  -->
<svg version="1.1" id="Layer_1" xmlns="http://www.w3.org/2000/svg" xmlns:xlink="http://www.w3.org/1999/xlink" x="0px" y="0px"
	 viewBox="0 0 792 612" style="enable-background:new 0 0 792 612;" xml:space="preserve">
<style type="text/css">
	.st0{fill:#FFFFFF;}
</style>
<g>
	<g>
		<path class="st0" d="M565.8,264.9c-12.4,16.5-25.1,32.9-37.7,49.2l-19.1,24.4l-19.3,24.2c-6.4,8.1-12.7,16.3-18.9,24.5
			c-6.3,8.2-13,16-20.2,23.5c-7.1,7.5-14.5,14.7-22.2,21.7c-7.7,7-15.7,13.7-24.4,19.9c-0.4,0.3-1,0.2-1.3-0.2
			c-0.2-0.3-0.2-0.7-0.1-0.9c4.8-9.5,10.3-18.3,16.1-27c5.8-8.6,11.9-17,18.2-25.2c6.3-8.2,13.1-15.9,20.3-23.4
			c7.2-7.4,14.5-14.8,21.5-22.3l21.2-22.6l21.3-22.5c14.3-14.9,28.6-29.8,43.2-44.5c0.3-0.4,0.9-0.4,1.3,0
			C566,264.1,566.1,264.6,565.8,264.9z"/>
	</g>
	<g>
		<path class="st0" d="M220.1,267c3.7,17.3,7.1,34.7,10.5,52l4.9,26.1l4.7,26.1c1.5,8.7,3.4,17.4,5.2,26c1.7,8.7,2.9,17.4,3.6,26.2
			c0.6,8.8,0.9,17.7,0.8,26.6c-0.1,8.9-0.6,17.9-1.9,27c-0.1,0.5-0.6,0.9-1.1,0.8c-0.3,0-0.6-0.3-0.7-0.6c-3.7-8.4-6.4-17-8.9-25.5
			c-2.4-8.6-4.4-17.2-6.1-25.9c-1.7-8.7-2.8-17.4-3.4-26.3c-0.6-8.8-1-17.7-1.8-26.5l-2.2-26.4l-2-26.5c-1.2-17.6-2.5-35.3-3.3-53
			c0-0.5,0.4-0.9,0.9-0.9C219.6,266.3,220,266.6,220.1,267z"/>
	</g>
	<g>
		<path class="st0" d="M122.2,412.9c0-19.3,1.8-38.6,5.5-57.7l1.5-7.1c0.5-2.4,1-4.8,1.7-7.1l3.9-14l4.8-13.8l0.6-1.7l0.7-1.7
			l1.4-3.4l2.8-6.7c15.6-35.5,39.3-67.9,69.8-92.6c3.9-3,7.8-5.9,11.8-8.8c1.9-1.5,4-2.8,6.1-4.1l6.2-4l3.1-2l3.2-1.8l6.4-3.5
			c4.2-2.5,8.7-4.5,13.1-6.6c17.7-8.4,36.3-15,55.6-19.2l3.6-0.8l3.6-0.6l7.3-1.2c2.4-0.5,4.9-0.7,7.3-0.9l7.4-0.8l7.4-0.4
			c2.5-0.1,4.9-0.3,7.4-0.3c4.9,0.1,9.9-0.1,14.9,0.4c2.5,0.2,5,0.3,7.4,0.6l7.4,1c1.2,0.2,2.5,0.3,3.7,0.5l3.7,0.7
			c2.4,0.5,4.9,0.9,7.3,1.5c9.7,2.4,19.3,5.6,28.5,9.8l-0.7-0.3l1.3,0.5l1.2,0.5c0.8,0.3,1.6,0.7,2.3,1c1.5,0.7,3,1.4,4.5,2.2
			c1.5,0.8,3,1.6,4.4,2.4l2.2,1.3l2.1,1.4c5.6,3.7,10.8,8,15.5,13c1.2,1.2,2.4,2.5,3.4,3.9c1,1.4,2.2,2.6,3.1,4.1l2.9,4.3l2.5,4.6
			l0.6,1.2l0.5,1.2l1,2.4l1,2.4c0.3,0.8,0.5,1.7,0.8,2.6l0.8,2.6c0.2,0.9,0.4,1.7,0.5,2.6c0.3,1.7,0.7,3.5,0.8,5.2
			c0.8,7,0.4,14-0.8,20.7c-1.2,6.7-3.2,13.1-5.5,19.4c-4.8,12.4-11.4,23.8-18.8,34.4c-7.5,10.6-15.8,20.5-24.9,29.7
			c-9.1,9.2-18.8,17.7-29.2,25.4c-10.4,7.7-21.3,14.7-32.9,20.6c-11.6,5.9-23.7,10.8-36,14.6c-12.4,3.8-24.9,6.8-38,8.5
			c-6.5,0.8-13.2,1.2-20,1c-6.9-0.3-14-1-21.5-4.3c-3.7-1.7-7.6-4.2-10.5-8l-1.1-1.5c-0.3-0.5-0.6-1-0.9-1.5l-0.8-1.6
			c-0.2-0.5-0.4-1-0.6-1.6l-0.6-1.6l-0.4-1.6l-0.4-1.6c-0.1-0.5-0.1-1-0.2-1.5c-0.6-4.1-0.3-8.1,0.4-11.9c0.7-3.8,2-7.5,3.9-11
			c1.9-3.5,4.3-6.8,7.9-9.6c1.7-1.4,3.8-2.6,6-3.4c2.2-0.8,4.5-1.3,6.6-1.4c4.4-0.3,8.2,0.5,11.8,1.5c3.5,1.1,6.7,2.5,9.8,4
			c6,3.2,11.5,6.9,16.6,10.7c5.2,3.9,10,8,14.8,12.3c9.5,8.5,18.2,17.5,26.8,26.7c17,18.5,32.9,37.8,48,57.7c0.3,0.4,0.2,1-0.2,1.3
			c-0.4,0.3-0.9,0.2-1.2-0.1c-17.4-17.9-34.7-35.8-52.9-52.6c-9-8.5-18.3-16.6-27.9-24.2c-4.8-3.8-9.7-7.5-14.6-10.8
			c-5-3.3-10.1-6.4-15.3-8.7c-2.6-1.1-5.1-2.1-7.6-2.8c-2.5-0.6-4.8-0.9-6.7-0.6c-0.9,0.1-1.8,0.4-2.5,0.6c-0.7,0.3-1.3,0.7-2,1.3
			c-1.3,1.2-2.6,2.9-3.6,5c-2,4.1-2.7,9.4-2,13.4c0.4,2.1,1.1,3.6,1.9,4.7c0.9,1.1,2.4,2.1,4.4,2.9c4,1.6,9.5,2.3,15.1,2.3
			c5.6,0,11.4-0.5,17.2-1.4c11.6-1.8,23.4-4.7,34.8-8.4c5.7-1.9,11.4-3.9,16.9-6.1c2.8-1.1,5.5-2.3,8.2-3.6l4-1.9l4-2
			c10.7-5.3,20.8-11.7,30.6-18.7c19.5-14,37.3-30.7,51.6-49.9c7.1-9.6,13.3-19.8,17.7-30.6c2.2-5.4,4-10.9,5.1-16.4
			c1.1-5.5,1.5-11.1,1-16.5c-0.9-10.6-6-20.9-13.6-29.2c-3.8-4.2-8.1-7.9-12.9-11.2l-1.8-1.2l-1.8-1.1c-1.2-0.8-2.5-1.5-3.7-2.2
			c-1.3-0.7-2.5-1.4-3.8-2c-0.6-0.3-1.3-0.6-1.9-0.9l-0.9-0.4l-0.8-0.3l-0.5-0.2c-0.1,0-0.1-0.1-0.2-0.1c-8.2-3.9-16.9-7.1-25.8-9.5
			c-2.2-0.6-4.5-1-6.8-1.5l-3.4-0.7c-1.1-0.2-2.3-0.4-3.4-0.6l-6.9-1.1c-2.3-0.3-4.6-0.4-7-0.7c-4.6-0.6-9.3-0.5-14-0.7
			c-2.3-0.1-4.7,0.1-7,0.1l-7,0.2l-7,0.6c-2.3,0.2-4.7,0.3-7,0.8l-7,1l-3.5,0.5l-3.4,0.7c-18.5,3.6-36.5,9.6-53.7,17.3
			c-17.3,7.8-33.8,17.1-48.8,28.6c-30.1,23-53.9,53.9-70.2,88.4l-2.9,6.5l-1.5,3.3l-0.7,1.6l-0.6,1.7l-5,13.4l-4.2,13.7
			c-0.8,2.3-1.3,4.6-1.8,6.9l-1.7,7c-4.2,18.6-6.6,37.7-7.2,56.9v0c0,0.5-0.4,0.9-0.9,0.9C122.6,413.8,122.2,413.4,122.2,412.9z"/>
	</g>
	<path class="st0" d="M467.4,306.7c-22.2,18.2,4.3,34.2,8.2,35.6c6.7,2.4,17.4-3.7,18.4-10.6c2-13.5-22.6-26.7-21.1-25.8
		c4,2.4,19.6,14.4,27.5,9.4"/>
	<path class="st0" d="M424.3,354.2c9.3,9.2,20,33,29.8,20.5c7.5-9.6-0.5-27.8-12.9-42.2c8.8,10.2,15.9,23.7,29.1,25.3"/>
	<g>
		<path class="st0" d="M405.6,323.3c-0.4-0.2-1.2-1-1.7-2.3c-0.5-1.3-0.3-2.4-0.1-2.8c0.4,0.2,1.2,1,1.7,2.3
			C406,321.8,405.8,322.9,405.6,323.3z"/>
		<path class="st0" d="M403.7,313.6c-0.4,0-0.9,0.1-1.3,0.2c-2.8,1-4,4.9-2.7,8.7c1.1,3.2,3.7,5.4,6.1,5.4c0.4,0,0.9-0.1,1.3-0.2
			c2.8-1,4-4.9,2.7-8.7C408.7,315.8,406.1,313.6,403.7,313.6L403.7,313.6z"/>
	</g>
	<g>
		<path class="st0" d="M417.3,310.9c-0.4-0.2-1.2-1-1.7-2.3c-0.5-1.3-0.3-2.4-0.1-2.8c0.4,0.2,1.2,1,1.7,2.3
			C417.6,309.4,417.5,310.5,417.3,310.9z"/>
		<path class="st0" d="M415.3,301.2c-0.4,0-0.9,0.1-1.3,0.2c-2.8,1-4,4.9-2.7,8.7c1.1,3.2,3.7,5.4,6.1,5.4c0.4,0,0.9-0.1,1.3-0.2
			c2.8-1,4-4.9,2.7-8.7C420.3,303.3,417.7,301.2,415.3,301.2L415.3,301.2z"/>
	</g>
	<g>
		<path class="st0" d="M335,59.3c65.9,0,127.8,25.6,174.3,72.2s72.2,108.5,72.2,174.3s-25.6,127.8-72.2,174.3S400.9,552.4,335,552.4
			s-127.8-25.6-174.3-72.2S88.5,371.7,88.5,305.8s25.6-127.8,72.2-174.3C207.3,85,269.2,59.3,335,59.3 M335,50.3
			c-141.1,0-255.5,114.4-255.5,255.5S193.9,561.4,335,561.4s255.5-114.4,255.5-255.5S476.2,50.3,335,50.3L335,50.3z"/>
	</g>
</g>
</svg>
